<?xml version="1.0" standalone="no"?>
<!DOCTYPE svg PUBLIC "-//W3C//DTD SVG 20010904//EN"
 "http://www.w3.org/TR/2001/REC-SVG-20010904/DTD/svg10.dtd">
<svg version="1.0" xmlns="http://www.w3.org/2000/svg"
 width="1024.000000pt" height="1024.000000pt" viewBox="0 0 1024.000000 1024.000000"
 preserveAspectRatio="xMidYMid meet">
<metadata>
Created by potrace 1.11, written by Peter Selinger 2001-2013
</metadata>
<g transform="translate(0.000000,1024.000000) scale(0.100000,-0.100000)"
fill="#000000" stroke="none">
<path d="M4486 10228 c-11 -37 -13 -59 -6 -63 5 -3 5 -18 0 -34 -4 -15 -4 -34
0 -41 4 -7 4 -25 0 -40 -4 -15 -4 -33 0 -40 5 -7 5 -23 0 -34 -4 -12 -4 -30 0
-41 4 -11 4 -34 -1 -52 -4 -18 -3 -35 1 -38 5 -3 5 -17 1 -33 -4 -15 -4 -41 0
-59 3 -18 4 -34 1 -37 -4 -5 -6 -45 -3 -102 1 -11 10 -15 29 -14 15 1 29 1 32
0 15 -5 100 -4 100 1 0 4 17 3 38 0 20 -4 51 -4 67 -1 17 3 54 3 83 0 28 -3
52 -3 52 1 0 3 18 3 40 -1 22 -4 40 -5 40 -1 0 3 23 6 50 6 28 0 50 -3 50 -6
0 -11 60 3 61 15 0 6 0 61 -1 121 -2 136 -2 110 0 245 1 63 1 148 1 188 l-1
72 -315 0 c-244 0 -316 -3 -319 -12z"/>
<path d="M1350 9600 c0 -3 -19 -4 -42 -3 -24 2 -38 0 -32 -2 7 -4 8 -22 4 -50
-4 -25 -4 -45 1 -45 4 0 3 -16 -1 -35 -4 -20 -4 -38 1 -41 5 -3 7 -10 3 -15
-3 -5 -5 -30 -4 -54 0 -25 1 -53 1 -62 -3 -139 -1 -224 3 -232 4 -5 2 -12 -2
-15 -5 -3 -6 -22 -3 -43 6 -31 11 -38 29 -37 12 0 22 -3 22 -8 0 -5 7 -5 17 0
9 6 29 6 45 2 15 -5 28 -5 28 0 0 5 13 5 30 0 17 -5 30 -5 30 0 0 5 13 5 30 0
17 -5 30 -5 30 0 0 5 13 5 30 0 17 -5 30 -5 30 0 0 5 13 5 30 0 17 -5 30 -5
30 0 0 5 13 5 30 0 17 -5 30 -5 30 0 0 5 13 5 30 0 17 -5 30 -5 30 0 0 5 12 5
28 1 15 -4 39 -4 55 0 15 4 27 3 27 -2 0 -4 6 -6 14 -3 18 7 26 38 15 55 -4 7
-4 20 1 29 4 8 4 22 0 31 -5 8 -5 21 0 28 4 8 4 27 0 42 -5 16 -5 29 0 29 5 0
5 13 0 30 -5 17 -5 30 0 30 5 0 5 13 0 30 -5 17 -5 32 0 35 5 3 5 16 0 30 -6
15 -6 27 0 30 6 3 6 15 0 30 -6 15 -6 27 0 30 6 3 6 15 0 30 -6 15 -6 27 0 30
5 3 6 15 0 29 -4 12 -4 29 0 36 5 8 5 21 1 29 -5 9 -7 21 -5 26 2 6 -15 10
-41 10 -25 0 -45 -3 -45 -7 0 -4 -6 -5 -13 -3 -21 9 -147 11 -147 3 0 -4 -6
-5 -13 -3 -21 9 -147 11 -147 3 0 -4 -6 -5 -13 -3 -17 7 -147 11 -147 5z"/>
<path d="M7504 8877 c-10 -6 -25 -11 -33 -11 -17 -2 -92 -37 -101 -47 -3 -3
-27 -21 -55 -39 -27 -19 -59 -42 -69 -52 -11 -10 -24 -18 -30 -18 -5 0 -19 -8
-30 -19 -18 -15 -203 -144 -254 -176 -9 -5 -25 -18 -36 -27 -11 -10 -23 -18
-27 -18 -4 0 -14 -6 -21 -12 -7 -7 -59 -44 -115 -82 -57 -39 -103 -73 -103
-78 0 -8 5 -18 109 -197 39 -68 71 -127 71 -132 0 -5 5 -9 10 -9 6 0 10 -6 10
-14 0 -7 9 -25 21 -40 11 -14 17 -26 12 -26 -4 0 -3 -4 2 -8 9 -6 107 -172
138 -232 4 -8 21 -37 38 -65 17 -27 35 -62 42 -77 6 -16 15 -28 19 -28 4 0 8
-4 8 -9 0 -5 20 -42 44 -83 25 -40 56 -93 69 -118 14 -25 34 -61 46 -80 12
-19 28 -49 36 -67 8 -17 20 -37 27 -45 7 -7 22 -31 33 -53 11 -22 39 -72 63
-111 23 -39 42 -76 42 -82 0 -6 3 -12 8 -14 9 -4 40 -54 55 -90 6 -16 15 -28
19 -28 4 0 8 -4 8 -9 0 -6 29 -60 65 -121 36 -61 65 -113 65 -115 0 -3 15 -28
33 -57 18 -29 41 -70 52 -90 11 -21 25 -38 31 -38 7 0 87 36 178 80 91 44 170
80 176 80 5 0 10 5 10 10 0 6 5 10 11 10 6 0 76 32 156 70 80 39 149 70 154
70 5 0 9 5 9 10 0 6 3 9 8 8 14 -4 181 82 208 108 16 14 33 29 39 32 13 9 30
37 50 81 36 80 38 179 4 256 -11 26 -175 311 -238 415 -12 19 -27 46 -34 60
-13 27 -149 259 -175 300 -9 14 -15 28 -14 33 1 4 -3 7 -8 7 -6 0 -10 4 -10
10 0 8 -31 63 -90 160 -58 96 -130 224 -130 231 0 5 -4 9 -10 9 -5 0 -10 4
-10 9 0 5 -27 55 -60 111 -33 56 -60 106 -60 111 0 5 -4 9 -10 9 -5 0 -10 4
-10 9 0 21 -125 218 -156 246 -44 41 -107 74 -153 80 -71 11 -120 11 -137 2z"/>
<path d="M3221 8318 c-19 -7 -36 -48 -20 -48 6 0 5 -8 -1 -19 -7 -13 -7 -22 0
-26 7 -4 7 -12 1 -23 -6 -10 -6 -23 0 -34 6 -10 5 -19 -1 -23 -7 -4 -7 -12 0
-24 5 -10 6 -21 3 -25 -9 -9 -9 -65 -1 -59 5 2 4 -7 -2 -21 -6 -16 -6 -26 0
-26 6 0 6 -9 1 -23 -5 -13 -5 -30 0 -39 6 -11 5 -19 -1 -23 -7 -4 -7 -12 0
-25 6 -10 7 -21 2 -24 -8 -5 -7 -80 2 -103 3 -7 1 -13 -4 -13 -6 0 -6 -9 0
-24 5 -13 7 -26 4 -29 -3 -2 4 -7 16 -10 11 -3 20 -1 20 4 0 6 7 6 18 0 11 -6
24 -6 34 0 10 6 19 6 23 0 3 -6 15 -7 29 -1 12 4 29 4 36 0 8 -5 22 -4 31 1
11 6 20 5 24 -1 4 -7 12 -7 24 0 10 5 21 7 25 3 9 -9 116 -9 116 0 0 4 8 3 18
-2 11 -6 24 -6 34 0 11 6 19 6 23 -1 4 -7 12 -7 25 0 13 7 21 7 25 0 4 -7 12
-7 25 0 13 7 21 7 25 0 4 -7 12 -7 25 0 13 7 21 7 26 -2 12 -19 22 32 13 65
-4 15 -4 27 1 27 5 0 5 13 0 30 -5 17 -5 30 0 30 5 0 5 13 0 30 -5 17 -5 30 0
30 5 0 5 13 0 30 -5 17 -5 30 0 30 5 0 5 12 1 28 -5 15 -5 37 0 49 5 13 4 25
-1 28 -6 4 -7 13 -1 24 6 10 6 23 1 31 -5 8 -5 21 0 30 5 9 4 23 -1 32 -6 10
-6 19 0 23 6 3 7 15 1 29 -4 12 -5 29 0 36 4 7 3 26 -2 41 -8 23 -13 27 -28
19 -9 -5 -20 -6 -24 -3 -6 6 -117 8 -141 3 -5 -1 -14 -1 -20 0 -14 2 -128 3
-140 0 -5 -1 -14 -1 -20 0 -14 2 -128 3 -140 0 -5 -1 -12 -1 -15 0 -14 5 -73
4 -89 -2z"/>
<path d="M6070 7916 c-8 -7 -46 -35 -85 -60 -38 -25 -74 -50 -80 -54 -10 -8
-290 -198 -485 -330 -58 -39 -110 -75 -115 -79 -6 -4 -64 -44 -130 -88 -66
-44 -122 -82 -125 -85 -3 -4 -52 -37 -110 -75 -58 -39 -107 -72 -110 -75 -6
-6 -204 -141 -228 -155 -9 -5 -19 -12 -22 -15 -3 -3 -32 -23 -65 -45 -33 -22
-62 -42 -65 -45 -3 -4 -23 -17 -45 -30 -22 -13 -42 -26 -45 -29 -12 -14 -70
-51 -79 -51 -5 0 -11 -3 -13 -8 -1 -4 -52 -41 -113 -82 -60 -40 -111 -77 -113
-82 -2 -4 -8 -8 -14 -8 -5 0 -46 -26 -91 -58 -45 -32 -97 -67 -114 -77 -18
-11 -33 -23 -33 -27 0 -4 -5 -8 -10 -8 -6 0 -34 -17 -63 -37 -29 -21 -60 -42
-69 -48 -26 -16 -192 -129 -198 -135 -3 -3 -25 -19 -50 -35 -25 -17 -46 -33
-48 -37 -2 -5 -8 -8 -14 -8 -5 0 -46 -26 -91 -58 -45 -32 -116 -80 -157 -107
-41 -27 -77 -51 -80 -55 -12 -13 -102 -70 -110 -70 -6 0 -10 -4 -10 -10 0 -5
-4 -10 -10 -10 -5 0 -18 -7 -27 -15 -24 -20 -456 -314 -467 -318 -5 -2 3 -22
18 -45 14 -23 26 -44 26 -47 0 -2 16 -29 35 -59 19 -30 35 -57 35 -60 0 -9 75
-131 85 -138 5 -4 7 -8 3 -8 -4 0 12 -33 36 -72 23 -40 55 -95 70 -123 16 -27
53 -91 82 -142 30 -50 54 -96 54 -101 0 -6 4 -12 8 -14 4 -1 26 -34 47 -73 22
-38 44 -78 50 -87 5 -9 17 -29 26 -45 29 -53 181 -318 195 -340 l13 -21 58 28
c32 16 110 53 173 83 63 30 167 79 230 110 202 97 593 284 715 342 50 23 127
61 172 83 45 22 84 38 87 34 3 -3 6 0 6 6 0 7 4 12 9 12 5 0 70 29 143 65 73
36 139 65 146 65 6 0 12 5 12 10 0 6 4 10 9 10 5 0 62 26 127 57 66 31 121 57
124 58 3 0 59 27 125 59 66 32 171 83 233 112 241 115 341 164 447 215 61 29
112 54 115 54 3 1 71 33 153 73 81 40 152 72 157 72 6 0 10 5 10 11 0 5 4 8 9
4 5 -3 12 -1 16 5 4 6 11 8 16 5 5 -4 9 -2 9 4 0 5 21 17 48 27 26 10 54 23
63 31 8 7 19 13 23 13 7 0 101 44 391 185 94 45 181 85 193 89 12 4 22 13 22
21 0 7 -22 51 -50 98 -27 47 -50 90 -50 96 0 6 -3 11 -8 11 -4 0 -18 21 -32
48 -14 26 -49 87 -77 135 -29 48 -53 90 -53 92 0 3 -16 29 -35 59 -19 30 -35
60 -35 66 0 5 -4 10 -8 10 -4 0 -14 16 -21 35 -7 19 -17 35 -22 35 -5 0 -9 4
-9 9 0 9 -53 106 -88 161 -9 14 -17 27 -17 30 0 3 -17 33 -38 66 -20 34 -37
66 -37 72 0 6 -4 12 -8 14 -4 2 -23 30 -41 63 -19 33 -39 63 -45 67 -6 4 -7 8
-3 8 5 0 -1 13 -12 29 -12 16 -21 32 -21 35 0 3 -16 30 -35 60 -19 30 -35 60
-35 66 0 5 -4 10 -10 10 -6 0 -9 3 -8 8 2 7 -56 110 -109 194 -12 21 -23 40
-23 42 0 3 -20 39 -45 79 -25 41 -45 80 -45 86 0 6 -4 11 -10 11 -5 0 -10 5
-10 11 0 6 -13 31 -30 56 -16 24 -30 47 -30 52 0 4 -6 15 -13 24 -10 15 -14
16 -27 3z"/>
<path d="M1800 5005 c-19 -13 -39 -28 -45 -32 -5 -5 -71 -49 -145 -98 -74 -49
-141 -95 -147 -104 -7 -8 -13 -11 -13 -5 0 5 -3 5 -8 -1 -4 -5 -34 -28 -67
-50 -33 -22 -61 -43 -63 -47 -2 -5 -7 -8 -12 -8 -4 0 -59 -35 -121 -77 -161
-108 -244 -199 -265 -289 -14 -62 -8 -157 12 -209 9 -23 115 -208 124 -215 3
-3 11 -16 18 -30 7 -14 22 -40 33 -59 11 -19 55 -91 96 -160 92 -154 129 -209
163 -239 25 -24 102 -64 130 -69 122 -19 159 -9 402 112 48 24 89 40 92 37 3
-3 6 0 6 6 0 6 13 13 29 17 16 3 35 13 42 21 6 8 16 14 21 14 10 0 50 18 238
107 69 33 157 75 195 93 39 18 72 35 74 36 2 2 -29 58 -68 125 -39 66 -71 125
-71 129 0 5 -3 10 -8 12 -9 4 -92 147 -92 159 0 5 -5 9 -11 9 -5 0 -8 4 -5 9
3 5 -1 14 -9 21 -8 7 -15 19 -15 26 0 8 -4 14 -10 14 -5 0 -10 4 -10 9 0 6
-17 38 -37 73 -65 110 -72 122 -103 178 -17 30 -39 69 -50 85 -11 17 -23 37
-27 45 -19 41 -88 155 -95 158 -4 2 -8 8 -8 13 0 6 -22 48 -50 95 -27 47 -50
88 -50 93 0 7 -26 23 -33 21 -1 -1 -18 -12 -37 -25z"/>
<path d="M5115 4157 c-589 -297 -640 -324 -649 -352 -5 -16 -14 -33 -20 -37
-6 -4 -8 -8 -4 -8 6 0 -11 -47 -55 -150 -6 -14 -11 -27 -12 -30 -1 -3 -5 -14
-10 -25 -4 -11 -17 -42 -27 -70 -10 -27 -23 -59 -28 -70 -20 -43 -130 -325
-130 -335 0 -5 -5 -10 -12 -10 -6 0 -9 -3 -5 -6 5 -5 -14 -56 -54 -149 -5 -11
-54 -135 -109 -275 -56 -140 -106 -266 -112 -280 -19 -44 -26 -62 -88 -220
-34 -85 -67 -168 -75 -185 -7 -16 -17 -42 -20 -57 -4 -16 -12 -28 -18 -28 -6
0 -8 -3 -4 -6 3 -3 -14 -53 -38 -110 -23 -57 -41 -104 -39 -104 2 0 -5 -16
-16 -35 -11 -20 -20 -40 -20 -46 0 -6 -7 -25 -14 -42 -8 -18 -38 -90 -66 -162
-28 -71 -55 -139 -60 -150 -5 -11 -23 -56 -40 -100 -17 -44 -35 -89 -40 -100
-5 -11 -28 -67 -50 -125 -41 -105 -45 -115 -73 -180 -32 -76 -32 -79 7 -70 19
4 38 5 41 2 7 -7 143 -4 156 3 5 4 9 3 9 -2 0 -4 38 -8 85 -8 47 0 85 3 85 7
0 4 6 5 13 3 17 -7 147 -11 147 -5 0 3 16 5 36 5 36 0 36 1 65 75 16 41 34 84
39 95 5 11 27 65 49 120 22 55 45 114 52 130 7 17 13 32 14 35 5 15 19 49 31
77 8 17 14 34 14 38 0 4 7 21 14 38 8 18 47 113 86 212 39 99 75 189 80 200 5
11 37 90 70 175 34 85 68 169 76 187 7 17 14 38 14 47 0 9 5 16 10 16 6 0 10
7 10 16 0 9 6 30 14 47 8 18 38 91 66 162 28 72 55 139 60 150 5 11 41 101 81
200 39 99 76 191 82 205 6 14 11 27 11 30 2 6 44 112 66 165 9 22 23 56 30 75
7 19 21 53 30 75 9 22 32 78 51 125 18 47 36 87 39 90 3 3 6 12 8 20 2 13 18
57 43 115 33 80 65 162 69 180 1 6 7 19 13 30 6 11 11 23 12 27 0 3 3 9 7 13
4 4 8 -47 10 -114 2 -67 -1 -121 -5 -121 -5 0 -6 -4 -3 -8 3 -5 5 -60 6 -123
0 -63 0 -163 1 -224 0 -60 0 -117 0 -125 -2 -133 0 -224 5 -231 3 -5 2 -9 -3
-9 -7 0 -8 -62 -3 -210 1 -19 1 -84 1 -143 -1 -60 2 -113 5 -118 3 -5 2 -9 -3
-9 -7 0 -8 -62 -3 -210 1 -19 1 -84 1 -143 -1 -60 2 -113 5 -118 3 -5 2 -9 -3
-9 -7 0 -8 -62 -3 -210 1 -19 1 -84 1 -143 -1 -60 2 -113 5 -118 3 -5 2 -9 -3
-9 -7 0 -8 -62 -3 -210 1 -19 1 -84 1 -143 -1 -60 2 -113 5 -118 3 -5 2 -9 -3
-9 -7 0 -8 -62 -3 -210 1 -19 1 -84 1 -143 -1 -60 2 -113 5 -118 3 -5 2 -9 -3
-9 -4 0 -6 -54 -3 -120 3 -66 3 -129 0 -140 -3 -11 -4 -61 -2 -110 l3 -90 318
0 c175 0 320 2 323 5 3 3 2 25 -2 50 -4 25 -4 45 -1 45 7 0 5 106 -3 126 -3 7
-2 16 3 18 4 3 5 26 1 51 -4 25 -4 45 -1 45 7 0 5 106 -3 126 -3 7 -2 16 3 18
4 3 5 26 1 51 -4 25 -4 45 -1 45 7 0 4 107 -3 125 -2 7 -1 17 3 24 5 7 5 30 1
52 -4 21 -5 39 -1 39 3 0 5 21 3 47 -1 27 -2 71 -1 98 0 28 0 57 -1 65 0 17 0
44 3 113 1 26 0 47 -3 47 -6 0 -3 129 4 146 3 8 1 16 -4 19 -5 3 -5 18 0 34 4
15 4 34 0 41 -4 7 -4 25 0 40 4 15 4 33 0 40 -5 7 -5 23 0 34 4 12 4 30 0 41
-4 11 -4 34 1 52 4 18 3 35 -1 38 -5 3 -5 18 0 34 4 15 4 34 0 41 -4 7 -4 25
0 40 4 15 4 33 0 41 -5 7 -6 17 -3 22 3 5 5 73 4 151 -1 77 -2 148 -2 156 1 8
1 62 0 120 0 58 0 112 0 120 0 8 1 61 2 118 0 57 -1 106 -4 108 -3 3 -2 18 2
32 4 15 4 39 0 54 -4 15 -5 29 -2 32 7 7 7 111 0 123 -2 4 -1 17 3 28 4 11 4
34 -1 52 -4 18 -4 33 0 33 6 0 6 112 -1 127 -2 4 -1 28 3 53 3 25 7 39 7 32 1
-7 289 -586 639 -1286 l636 -1273 39 7 c21 4 38 5 38 1 0 -7 128 -4 147 4 7 2
13 1 13 -3 0 -4 38 -7 85 -7 47 0 85 3 85 7 0 4 6 5 13 3 18 -8 147 -11 147
-4 0 3 14 4 30 1 18 -3 30 0 30 7 0 11 -1908 3832 -1913 3830 -1 0 -290 -145
-642 -322z"/>
</g>
</svg>
